# xmcd CD Database Entry
#
# Track frame offsets:
# 150
# 6925
# 27398
# 60632
# 85817
# 111496
# 145256
# 167020
# 198627
# 223571
# 246826
#
# Disc length: 3514 seconds
#
# Revision: 2
# Processed by: cddbd v1.4PL0 Copyright (c) Steve Scherf et al.
# Submitted via: tcd 2.0b
#
DISCID=9d0db80b
DTITLE=Inconnu - Inconnu
DYEAR=1900
DGENRE=
TTITLE0=Piste 1
TTITLE1=Piste 2
TTITLE2=Piste 3
TTITLE3=Piste 4
TTITLE4=Piste 5
TTITLE5=Piste 6
TTITLE6=Piste 7
TTITLE7=Piste 8
TTITLE8=Piste 9
TTITLE9=Piste 10
TTITLE10=Piste 11
EXTD=chorale saite-cecile
EXTT0=
EXTT1=
EXTT2=
EXTT3=
EXTT4=
EXTT5=
EXTT6=
EXTT7=
EXTT8=
EXTT9=
EXTT10=
PLAYORDER=
